<?xml version="1.0" standalone="no"?>
<!DOCTYPE svg PUBLIC "-//W3C//DTD SVG 20010904//EN"
 "http://www.w3.org/TR/2001/REC-SVG-20010904/DTD/svg10.dtd">
<svg version="1.0" xmlns="http://www.w3.org/2000/svg"
 width="260.000000pt" height="260.000000pt" viewBox="0 0 260.000000 260.000000"
 preserveAspectRatio="xMidYMid meet">
<metadata>
Created by potrace 1.11, written by Peter Selinger 2001-2013
</metadata>
<g transform="translate(0.000000,260.000000) scale(0.100000,-0.100000)"
fill="#000000" stroke="none">
<path d="M1513 2368 l-172 -143 0 -967 -1 -966 172 -143 c94 -78 177 -142 184
-143 7 -1 155 118 328 264 l315 265 1 480 0 480 -177 146 -177 146 -141 -117
-140 -118 -3 479 c-1 263 -6 479 -10 479 -4 0 -85 -64 -179 -142z m365 -976
l112 -94 0 -525 c0 -320 -4 -523 -9 -521 -5 2 -71 54 -145 115 l-136 113 0
531 0 531 33 -28 c17 -15 83 -70 145 -122z"/>
<path d="M660 1704 c-47 -42 -178 -155 -292 -251 l-208 -174 0 -457 0 -457
220 -183 221 -182 152 133 c84 73 194 168 246 212 l93 79 -28 23 c-16 13 -31
23 -34 23 -3 0 -49 -39 -103 -85 l-99 -85 -151 128 -152 129 -3 472 -2 472
152 -127 c84 -70 160 -134 169 -141 15 -12 32 -1 150 98 74 61 140 117 147
123 10 10 -26 44 -175 166 -102 84 -194 154 -202 156 -9 2 -54 -30 -101 -72z"/>
</g>
</svg>
